Coordinates
version=1
nRows=8
nColumns=40
inDegrees=yes

Units are S.I. units (second, meters, Newtons, ...)
Angles are in degrees.

endheader
time	pelvis_tilt	pelvis_list	pelvis_rotation	pelvis_tx	pelvis_ty	pelvis_tz	hip_flexion_r	hip_adduction_r	hip_rotation_r	knee_angle_r	knee_angle_r_beta	ankle_angle_r	subtalar_angle_r	mtp_angle_r	hip_flexion_l	hip_adduction_l	hip_rotation_l	knee_angle_l	knee_angle_l_beta	ankle_angle_l	subtalar_angle_l	mtp_angle_l	lumbar_extension	lumbar_bending	lumbar_rotation	arm_flex_r	arm_add_r	arm_rot_r	elbow_flex_r	pro_sup_r	wrist_flex_r	wrist_dev_r	arm_flex_l	arm_add_l	arm_rot_l	elbow_flex_l	pro_sup_l	wrist_flex_l	wrist_dev_l
     29.60000000	     -6.32052317	     -6.13601134	      6.05716826	      1.08429176	      0.92440347	      0.48522288	     17.79372358	      3.44120803	    -15.37001504	     19.94933466	     19.94933466	     10.37584687	     -5.48914813	     -0.37673515	     37.69446701	    -11.39826931	      7.27191952	     70.81161467	     70.81161467	      4.94380839	    -18.87390158	     12.88771997	    -12.42634675	      3.92560257	      3.65821529	      6.69860800	    -15.85702999	      0.60987269	     65.91693983	     45.63280197	      0.00000000	      0.00000000	      4.19233292	     -8.96725749	     -3.82469724	     63.56640383	     46.30269149	      0.00000000	      0.00000000
     29.61157143	     -6.37907740	     -6.11935387	      6.53648563	      1.08285226	      0.92501819	      0.48566074	     17.03571157	      3.55277151	    -15.53074099	     19.31861918	     19.31861918	     10.59534617	     -5.60449956	     -0.30499174	     39.43882765	    -11.16248513	      7.02396561	     69.49656386	     69.49656386	      5.46902498	    -18.98760192	     13.20302486	    -12.42547838	      3.87324152	      2.76559909	      9.48111237	    -15.57174033	      0.40443453	     68.37627127	     45.56668767	      0.00000000	      0.00000000	      2.64401921	     -9.20893743	     -3.67530923	     60.18754403	     46.25020128	      0.00000000	      0.00000000
     29.62314286	     -6.43695546	     -6.07158297	      7.01234829	      1.08141687	      0.92552910	      0.48588266	     16.37602173	      3.57459596	    -15.76143866	     18.89556073	     18.89556073	     10.83502977	     -5.63642203	     -0.41543723	     40.99976765	    -10.78890393	      6.79677823	     67.97617921	     67.97617921	      6.15637589	    -19.04249862	     14.26437755	    -12.35841960	      3.90303468	      2.86562330	     11.42885705	    -16.28629025	      0.92721193	     71.82175900	     45.43646389	      0.00000000	      0.00000000	      3.14340223	     -8.52425996	     -3.91173409	     52.83879008	     46.23454593	      0.00000000	      0.00000000
     29.63471429	     -6.44698254	     -5.99919046	      7.41063388	      1.07999832	      0.92603790	      0.48611653	     15.64154879	      3.60627645	    -15.95227004	     18.40153319	     18.40153319	     11.06601852	     -5.63350144	     -0.41647023	     42.28119227	    -10.40808965	      6.49833576	     66.21438728	     66.21438728	      6.63029168	    -19.09187318	     14.77816907	    -12.42938521	      3.86350989	      2.42025099	     13.91853086	    -16.17024770	      0.51221490	     74.59345125	     45.36846883	      0.00000000	      0.00000000	      2.29609708	     -8.43465183	     -3.81377265	     48.67135979	     46.19781724	      0.00000000	      0.00000000
     29.64628571	     -6.54138259	     -5.92046659	      7.73329461	      1.07852654	      0.92641640	      0.48633055	     15.03172491	      3.61531706	    -16.14074439	     17.96439571	     17.96439571	     11.28652124	     -5.53880019	     -0.52716564	     43.47985496	     -9.94443066	      6.27720356	     64.27071190	     64.27071190	      7.21758526	    -19.07909662	     16.01658380	    -12.38458440	      3.82850288	      3.88672652	     14.84402867	    -17.19823976	     -1.01709483	     78.61089990	     45.29302606	      0.00000000	      0.00000000	      4.42543996	     -7.26838065	     -4.18515823	     39.51268647	     46.27251925	      0.00000000	      0.00000000
     29.65785714	     -6.56066737	     -5.84845353	      8.02072677	      1.07723127	      0.92680314	      0.48649691	     14.31457978	      3.65304835	    -16.29056252	     17.49391338	     17.49391338	     11.53624537	     -5.38392436	     -0.52938417	     44.35234099	     -9.46590325	      6.15427394	     62.04475156	     62.04475156	      7.44273502	    -19.04212345	     16.17978011	    -12.48275397	      3.75257409	      3.38267924	     17.63658801	    -16.90284807	     -1.33609622	     80.85359530	     45.24277913	      0.00000000	      0.00000000	      3.02909965	     -7.42406375	     -4.06445112	     37.04782756	     46.23771207	      0.00000000	      0.00000000
     29.66942857	     -6.65874217	     -5.78546228	      8.19731289	      1.07586127	      0.92702171	      0.48656596	     13.70321892	      3.66391660	    -16.54953845	     17.05554009	     17.05554009	     11.78638306	     -4.92092346	     -0.65559179	     45.12510294	     -8.97159389	      6.10708644	     59.62742267	     59.62742267	      7.53476547	    -18.92045239	     15.96615025	    -12.43174009	      3.72567865	      3.85065911	     19.87169161	    -17.61039474	     -1.13550973	     83.37448099	     45.16872531	      0.00000000	      0.00000000	      3.59399209	     -7.02785579	     -4.10738454	     30.76807635	     46.26316565	      0.00000000	      0.00000000
     29.68100000	     -6.73737287	     -5.71169685	      8.28848037	      1.07458989	      0.92721675	      0.48660260	     13.05698395	      3.70511834	    -16.59799326	     16.59159858	     16.59159858	     12.01464007	     -4.68117275	     -0.66638313	     45.67337031	     -8.43098813	      6.22919821	     57.02815151	     57.02815151	      7.68401960	    -18.71840911	     15.99767540	    -12.46306110	      3.63179592	      3.84958273	     22.59078708	    -17.45723870	     -1.60016590	     85.32776326	     45.13341290	      0.00000000	      0.00000000	      2.20621457	     -7.10817726	     -4.12011652	     29.23345811	     46.24639849	      0.00000000	      0.00000000
